<svg xmlns="http://www.w3.org/2000/svg" width="388" height="634.001" viewBox="0 0 388 634.001"><g transform="translate(0 -275)"><circle cx="85" cy="85" r="85" transform="translate(218 592)" fill="#78fee0"/><circle cx="47" cy="47" r="47" transform="translate(145 795)" fill="#fac0e1"/><path d="M353,1105c-7.659,0-15.4-.276-23-.822V471.821c7.606-.546,15.344-.822,23-.822a319.347,319.347,0,0,1,63.887,6.44,315.266,315.266,0,0,1,113.351,47.7A317.925,317.925,0,0,1,645.088,664.61a315.413,315.413,0,0,1,18.471,59.5,320.091,320.091,0,0,1,0,127.773,315.267,315.267,0,0,1-47.7,113.351,317.926,317.926,0,0,1-139.471,114.851,315.418,315.418,0,0,1-59.5,18.471A319.352,319.352,0,0,1,353,1105Z" transform="translate(-330 -196)" fill="#3b9a9c" style="mix-blend-mode:color-burn;isolation:isolate"/></g></svg>