<svg xmlns="http://www.w3.org/2000/svg" width="856.986" height="370.338" viewBox="0 0 856.986 370.338"><path d="M996.5,698.5H139.515a198.813,198.813,0,0,1,31.254-28.953,275.169,275.169,0,0,1,53.707-31.173,356.421,356.421,0,0,1,36.747-13.894,434.025,434.025,0,0,1,44.128-11.42c16.516-3.387,34.044-6.056,52.1-7.935,19.291-2.007,39.7-3.165,60.657-3.441,5.3-.07,10.659-.105,15.927-.105,67.728,0,120.922,5.771,164.024,11.416,8.765,1.148,17.118,2.292,25.195,3.4l.041.006.017,0c15.729,2.154,30.585,4.188,44.191,5.645a356.954,356.954,0,0,0,38.1,2.367c21.812,0,39.765-3.11,56.5-9.789a139.659,139.659,0,0,0,26.674-14.277A204.635,204.635,0,0,0,816,578c30.125-28.968,70.067-88.784,108.694-146.63l.005-.008c12.313-18.439,25.045-37.506,37.124-55.055,13.529-19.655,24.872-35.4,34.677-48.145V698.5Z" transform="translate(-139.515 -328.162)" fill="#ffa563"/></svg>